0
SECTION
2
HEADER
9
$INSUNITS
70
4
9
$ACADVER
1
AC1014
9
$HANDSEED
5
FFFF
0
ENDSEC
0
SECTION
2
TABLES
0
TABLE
2
VPORT
5
8
100
AcDbSymbolTable
0
ENDTAB
0
TABLE
2
LTYPE
5
5
100
AcDbSymbolTable
0
LTYPE
5
14
100
AcDbSymbolTableRecord
100
AcDbLinetypeTableRecord
2
BYBLOCK
70
0
0
LTYPE
5
15
100
AcDbSymbolTableRecord
100
AcDbLinetypeTableRecord
2
BYLAYER
70
0
0
ENDTAB
0
TABLE
2
LAYER
5
2
100
AcDbSymbolTable
70
2
0
LAYER
5
50
100
AcDbSymbolTableRecord
100
AcDbLayerTableRecord
2
0
70
0
6
CONTINUOUS
0
ENDTAB
0
TABLE
2
STYLE
5
3
100
AcDbSymbolTable
70
1
0
STYLE
5
11
100
AcDbSymbolTableRecord
100
AcDbTextStyleTableRecord
2
STANDARD
70
0
0
ENDTAB
0
TABLE
2
VIEW
5
6
100
AcDbSymbolTable
70
0
0
ENDTAB
0
TABLE
2
UCS
5
7
100
AcDbSymbolTable
70
0
0
ENDTAB
0
TABLE
2
APPID
5
9
100
AcDbSymbolTable
70
2
0
APPID
5
12
100
AcDbSymbolTableRecord
100
AcDbRegAppTableRecord
2
ACAD
70
0
0
ENDTAB
0
TABLE
2
DIMSTYLE
5
A
100
AcDbSymbolTable
70
1
0
ENDTAB
0
TABLE
2
BLOCK_RECORD
5
1
100
AcDbSymbolTable
70
1
0
BLOCK_RECORD
5
1F
100
AcDbSymbolTableRecord
100
AcDbBlockTableRecord
2
*MODEL_SPACE
0
BLOCK_RECORD
5
1B
100
AcDbSymbolTableRecord
100
AcDbBlockTableRecord
2
*PAPER_SPACE
0
ENDTAB
0
ENDSEC
0
SECTION
2
BLOCKS
0
BLOCK
5
20
100
AcDbEntity
100
AcDbBlockBegin
2
*MODEL_SPACE
0
ENDBLK
5
21
100
AcDbEntity
100
AcDbBlockEnd
0
BLOCK
5
1C
100
AcDbEntity
100
AcDbBlockBegin
2
*PAPER_SPACE
0
ENDBLK
5
1D
100
AcDbEntity
100
AcDbBlockEnd
0
ENDSEC
0
SECTION
2
ENTITIES
0
LWPOLYLINE
5
100
100
AcDbEntity
8
0
100
AcDbPolyline
90
4
70
1
43
0.0
10
37.499999999995495
20
-162.75000000000296
10
41.999999999995879
20
-162.75000000000293
42
0.99999999999999989
10
41.999999999995879
20
-159.75000000000097
10
37.499999999995495
20
-159.75000000000097
42
0.99999999999999989
0
LWPOLYLINE
5
101
100
AcDbEntity
8
0
100
AcDbPolyline
90
4
70
1
43
0.0
10
53.999999999929535
20
-161.24999999999443
10
53.999999999912575
20
-156.74999999999389
42
0.99999999999999989
10
50.999999999990038
20
-156.7500000000052
10
51.000000000007013
20
-161.25000000000571
42
0.99999999999999989
0
LWPOLYLINE
5
102
100
AcDbEntity
8
0
100
AcDbPolyline
90
4
70
1
43
0.0
10
35.999999999995531
20
-142.50000000000145
10
35.999999999995531
20
-147.00000000000148
42
0.99999999999999989
10
38.999999999995481
20
-147.00000000000148
10
38.999999999995481
20
-142.50000000000145
42
0.99999999999999989
0
LWPOLYLINE
5
103
100
AcDbEntity
8
0
100
AcDbPolyline
90
4
70
1
43
0.0
10
48.000000000118476
20
-144.00000000002899
10
52.50000000012804
20
-144.000000000006
42
0.99999999999999989
10
52.500000000134392
20
-140.9999999999971
10
48.000000000133824
20
-140.99999999997411
42
0.99999999999999989
0
LWPOLYLINE
5
104
100
AcDbEntity
8
0
100
AcDbPolyline
90
4
70
1
43
0.0
10
37.499999999995516
20
-132.75000000000296
10
41.9999999999959
20
-132.75000000000293
42
0.99999999999999989
10
41.9999999999959
20
-129.75000000000097
10
37.499999999995516
20
-129.75000000000097
42
0.99999999999999989
0
LWPOLYLINE
5
105
100
AcDbEntity
8
0
100
AcDbPolyline
90
4
70
1
43
0.0
10
53.999999999929557
20
-131.24999999999443
10
53.999999999912589
20
-126.74999999999388
42
0.99999999999999989
10
50.99999999999006
20
-126.75000000000517
10
51.000000000007034
20
-131.25000000000571
42
0.99999999999999989
0
LWPOLYLINE
5
106
100
AcDbEntity
8
0
100
AcDbPolyline
90
4
70
1
43
0.0
10
35.999999999995545
20
-112.50000000000145
10
35.999999999995545
20
-117.00000000000148
42
0.99999999999999989
10
38.999999999995502
20
-117.00000000000148
10
38.999999999995502
20
-112.50000000000145
42
0.99999999999999989
0
LWPOLYLINE
5
107
100
AcDbEntity
8
0
100
AcDbPolyline
90
4
70
1
43
0.0
10
48.00000000011849
20
-114.00000000002896
10
52.500000000128054
20
-114.00000000000597
42
0.99999999999999989
10
52.500000000134406
20
-110.99999999999709
10
48.000000000133838
20
-110.99999999997409
42
0.99999999999999989
0
LWPOLYLINE
5
108
100
AcDbEntity
8
0
100
AcDbPolyline
90
4
70
1
43
0.0
10
37.499999999995531
20
-102.75000000000296
10
41.999999999995914
20
-102.75000000000293
42
0.99999999999999989
10
41.999999999995914
20
-99.750000000000952
10
37.499999999995531
20
-99.750000000000952
42
0.99999999999999989
0
LWPOLYLINE
5
109
100
AcDbEntity
8
0
100
AcDbPolyline
90
4
70
1
43
0.0
10
53.999999999929571
20
-101.24999999999443
10
53.999999999912603
20
-96.749999999993875
42
0.99999999999999989
10
50.999999999990074
20
-96.750000000005173
10
51.000000000007049
20
-101.25000000000571
42
0.99999999999999989
0
LWPOLYLINE
5
110
100
AcDbEntity
8
0
100
AcDbPolyline
90
4
70
1
43
0.0
10
35.999999999995566
20
-82.50000000000145
10
35.999999999995566
20
-87.000000000001478
42
0.99999999999999989
10
38.999999999995516
20
-87.000000000001478
10
38.999999999995516
20
-82.50000000000145
42
0.99999999999999989
0
LWPOLYLINE
5
111
100
AcDbEntity
8
0
100
AcDbPolyline
90
4
70
1
43
0.0
10
48.000000000118504
20
-84.000000000028962
10
52.500000000128075
20
-84.000000000005969
42
0.99999999999999989
10
52.500000000134428
20
-80.999999999997087
10
48.000000000133852
20
-80.999999999974094
42
0.99999999999999989
0
LWPOLYLINE
5
112
100
AcDbEntity
8
0
100
AcDbPolyline
90
4
70
1
43
0.0
10
7.4999999999954969
20
-162.75000000000296
10
11.999999999995881
20
-162.75000000000293
42
0.99999999999999989
10
11.999999999995881
20
-159.75000000000097
10
7.4999999999954969
20
-159.75000000000097
42
0.99999999999999989
0
LWPOLYLINE
5
113
100
AcDbEntity
8
0
100
AcDbPolyline
90
4
70
1
43
0.0
10
23.999999999929535
20
-161.24999999999443
10
23.999999999912571
20
-156.74999999999389
42
0.99999999999999989
10
20.999999999990038
20
-156.7500000000052
10
21.000000000007006
20
-161.25000000000571
42
0.99999999999999989
0
LWPOLYLINE
5
114
100
AcDbEntity
8
0
100
AcDbPolyline
90
4
70
1
43
0.0
10
5.9999999999955289
20
-142.50000000000145
10
5.9999999999955289
20
-147.00000000000148
42
0.99999999999999989
10
8.9999999999954827
20
-147.00000000000148
10
8.9999999999954827
20
-142.50000000000145
42
0.99999999999999989
0
LWPOLYLINE
5
115
100
AcDbEntity
8
0
100
AcDbPolyline
90
4
70
1
43
0.0
10
18.000000000118472
20
-144.00000000002899
10
22.50000000012804
20
-144.000000000006
42
0.99999999999999989
10
22.500000000134392
20
-140.9999999999971
10
18.00000000013382
20
-140.99999999997411
42
0.99999999999999989
0
LWPOLYLINE
5
116
100
AcDbEntity
8
0
100
AcDbPolyline
90
4
70
1
43
0.0
10
7.4999999999955147
20
-132.75000000000296
10
11.999999999995898
20
-132.75000000000293
42
0.99999999999999989
10
11.999999999995898
20
-129.75000000000097
10
7.4999999999955147
20
-129.75000000000097
42
0.99999999999999989
0
LWPOLYLINE
5
117
100
AcDbEntity
8
0
100
AcDbPolyline
90
4
70
1
43
0.0
10
23.999999999929553
20
-131.24999999999443
10
23.999999999912589
20
-126.74999999999388
42
0.99999999999999989
10
20.99999999999006
20
-126.75000000000517
10
21.00000000000702
20
-131.25000000000571
42
0.99999999999999989
0
LWPOLYLINE
5
118
100
AcDbEntity
8
0
100
AcDbPolyline
90
4
70
1
43
0.0
10
5.9999999999955467
20
-112.50000000000145
10
5.9999999999955467
20
-117.00000000000148
42
0.99999999999999989
10
8.9999999999955005
20
-117.00000000000148
10
8.9999999999955005
20
-112.50000000000145
42
0.99999999999999989
0
LWPOLYLINE
5
119
100
AcDbEntity
8
0
100
AcDbPolyline
90
4
70
1
43
0.0
10
18.00000000011849
20
-114.00000000002896
10
22.500000000128058
20
-114.00000000000597
42
0.99999999999999989
10
22.500000000134406
20
-110.99999999999709
10
18.000000000133838
20
-110.99999999997409
42
0.99999999999999989
0
LWPOLYLINE
5
120
100
AcDbEntity
8
0
100
AcDbPolyline
90
4
70
1
43
0.0
10
7.4999999999955325
20
-102.75000000000296
10
11.999999999995916
20
-102.75000000000293
42
0.99999999999999989
10
11.999999999995916
20
-99.750000000000952
10
7.4999999999955325
20
-99.750000000000952
42
0.99999999999999989
0
LWPOLYLINE
5
121
100
AcDbEntity
8
0
100
AcDbPolyline
90
4
70
1
43
0.0
10
23.999999999929571
20
-101.24999999999443
10
23.999999999912607
20
-96.749999999993875
42
0.99999999999999989
10
20.999999999990074
20
-96.750000000005173
10
21.000000000007041
20
-101.25000000000571
42
0.99999999999999989
0
LWPOLYLINE
5
122
100
AcDbEntity
8
0
100
AcDbPolyline
90
4
70
1
43
0.0
10
5.9999999999955644
20
-82.50000000000145
10
5.9999999999955644
20
-87.000000000001478
42
0.99999999999999989
10
8.9999999999955183
20
-87.000000000001478
10
8.9999999999955183
20
-82.50000000000145
42
0.99999999999999989
0
LWPOLYLINE
5
123
100
AcDbEntity
8
0
100
AcDbPolyline
90
4
70
1
43
0.0
10
18.000000000118508
20
-84.000000000028962
10
22.500000000128075
20
-84.000000000005969
42
0.99999999999999989
10
22.500000000134428
20
-80.999999999997087
10
18.000000000133856
20
-80.999999999974094
42
0.99999999999999989
0
LWPOLYLINE
5
124
100
AcDbEntity
8
0
100
AcDbPolyline
90
4
70
1
43
0.0
10
-22.500000000004505
20
-162.75000000000296
10
-18.000000000004121
20
-162.75000000000293
42
0.99999999999999989
10
-18.000000000004121
20
-159.75000000000097
10
-22.500000000004505
20
-159.75000000000097
42
0.99999999999999989
0
LWPOLYLINE
5
125
100
AcDbEntity
8
0
100
AcDbPolyline
90
4
70
1
43
0.0
10
-6.0000000000704645
20
-161.24999999999443
10
-6.0000000000874287
20
-156.74999999999389
42
0.99999999999999989
10
-9.00000000000996
20
-156.7500000000052
10
-8.9999999999929958
20
-161.25000000000571
42
0.99999999999999989
0
LWPOLYLINE
5
126
100
AcDbEntity
8
0
100
AcDbPolyline
90
4
70
1
43
0.0
10
-24.000000000004469
20
-142.50000000000145
10
-24.000000000004469
20
-147.00000000000148
42
0.99999999999999989
10
-21.000000000004519
20
-147.00000000000148
10
-21.000000000004519
20
-142.50000000000145
42
0.99999999999999989
0
LWPOLYLINE
5
127
100
AcDbEntity
8
0
100
AcDbPolyline
90
4
70
1
43
0.0
10
-11.999999999881528
20
-144.00000000002899
10
-7.4999999998719602
20
-144.000000000006
42
0.99999999999999989
10
-7.4999999998656097
20
-140.9999999999971
10
-11.99999999986618
20
-140.99999999997411
42
0.99999999999999989
0
LWPOLYLINE
5
128
100
AcDbEntity
8
0
100
AcDbPolyline
90
4
70
1
43
0.0
10
-22.500000000004484
20
-132.75000000000296
10
-18.0000000000041
20
-132.75000000000293
42
0.99999999999999989
10
-18.0000000000041
20
-129.75000000000097
10
-22.500000000004484
20
-129.75000000000097
42
0.99999999999999989
0
LWPOLYLINE
5
129
100
AcDbEntity
8
0
100
AcDbPolyline
90
4
70
1
43
0.0
10
-6.0000000000704468
20
-131.24999999999443
10
-6.000000000087411
20
-126.74999999999388
42
0.99999999999999989
10
-9.0000000000099423
20
-126.75000000000517
10
-8.9999999999929781
20
-131.25000000000571
42
0.99999999999999989
0
LWPOLYLINE
5
130
100
AcDbEntity
8
0
100
AcDbPolyline
90
4
70
1
43
0.0
10
-24.000000000004455
20
-112.50000000000145
10
-24.000000000004455
20
-117.00000000000148
42
0.99999999999999989
10
-21.000000000004498
20
-117.00000000000148
10
-21.000000000004498
20
-112.50000000000145
42
0.99999999999999989
0
LWPOLYLINE
5
131
100
AcDbEntity
8
0
100
AcDbPolyline
90
4
70
1
43
0.0
10
-11.99999999988151
20
-114.00000000002896
10
-7.4999999998719424
20
-114.00000000000597
42
0.99999999999999989
10
-7.499999999865592
20
-110.99999999999709
10
-11.999999999866162
20
-110.99999999997409
42
0.99999999999999989
0
LWPOLYLINE
5
132
100
AcDbEntity
8
0
100
AcDbPolyline
90
4
70
1
43
0.0
10
-22.500000000004469
20
-102.75000000000296
10
-18.000000000004086
20
-102.75000000000293
42
0.99999999999999989
10
-18.000000000004086
20
-99.750000000000952
10
-22.500000000004469
20
-99.750000000000952
42
0.99999999999999989
0
LWPOLYLINE
5
133
100
AcDbEntity
8
0
100
AcDbPolyline
90
4
70
1
43
0.0
10
-6.000000000070429
20
-101.24999999999443
10
-6.0000000000873932
20
-96.749999999993875
42
0.99999999999999989
10
-9.0000000000099245
20
-96.750000000005173
10
-8.9999999999929603
20
-101.25000000000571
42
0.99999999999999989
0
LWPOLYLINE
5
134
100
AcDbEntity
8
0
100
AcDbPolyline
90
4
70
1
43
0.0
10
-24.000000000004434
20
-82.50000000000145
10
-24.000000000004434
20
-87.000000000001478
42
0.99999999999999989
10
-21.000000000004484
20
-87.000000000001478
10
-21.000000000004484
20
-82.50000000000145
42
0.99999999999999989
0
LWPOLYLINE
5
135
100
AcDbEntity
8
0
100
AcDbPolyline
90
4
70
1
43
0.0
10
-11.999999999881492
20
-84.000000000028962
10
-7.4999999998719247
20
-84.000000000005969
42
0.99999999999999989
10
-7.4999999998655742
20
-80.999999999997087
10
-11.999999999866144
20
-80.999999999974094
42
0.99999999999999989
0
LWPOLYLINE
5
136
100
AcDbEntity
8
0
100
AcDbPolyline
90
4
70
1
43
0.0
10
-52.500000000004505
20
-162.75000000000296
10
-48.000000000004121
20
-162.75000000000293
42
0.99999999999999989
10
-48.000000000004121
20
-159.75000000000097
10
-52.500000000004505
20
-159.75000000000097
42
0.99999999999999989
0
LWPOLYLINE
5
137
100
AcDbEntity
8
0
100
AcDbPolyline
90
4
70
1
43
0.0
10
-36.000000000070465
20
-161.24999999999443
10
-36.000000000087425
20
-156.74999999999389
42
0.99999999999999989
10
-39.000000000009962
20
-156.7500000000052
10
-38.999999999992994
20
-161.25000000000571
42
0.99999999999999989
0
LWPOLYLINE
5
138
100
AcDbEntity
8
0
100
AcDbPolyline
90
4
70
1
43
0.0
10
-54.000000000004469
20
-142.50000000000145
10
-54.000000000004469
20
-147.00000000000148
42
0.99999999999999989
10
-51.000000000004519
20
-147.00000000000148
10
-51.000000000004519
20
-142.50000000000145
42
0.99999999999999989
0
LWPOLYLINE
5
139
100
AcDbEntity
8
0
100
AcDbPolyline
90
4
70
1
43
0.0
10
-41.999999999881524
20
-144.00000000002899
10
-37.49999999987196
20
-144.000000000006
42
0.99999999999999989
10
-37.499999999865608
20
-140.9999999999971
10
-41.999999999866176
20
-140.99999999997411
42
0.99999999999999989
0
LWPOLYLINE
5
140
100
AcDbEntity
8
0
100
AcDbPolyline
90
4
70
1
43
0.0
10
-52.500000000004484
20
-132.75000000000296
10
-48.0000000000041
20
-132.75000000000293
42
0.99999999999999989
10
-48.0000000000041
20
-129.75000000000097
10
-52.500000000004484
20
-129.75000000000097
42
0.99999999999999989
0
LWPOLYLINE
5
141
100
AcDbEntity
8
0
100
AcDbPolyline
90
4
70
1
43
0.0
10
-36.000000000070443
20
-131.24999999999443
10
-36.000000000087411
20
-126.74999999999388
42
0.99999999999999989
10
-39.00000000000994
20
-126.75000000000517
10
-38.99999999999298
20
-131.25000000000571
42
0.99999999999999989
0
LWPOLYLINE
5
142
100
AcDbEntity
8
0
100
AcDbPolyline
90
4
70
1
43
0.0
10
-54.000000000004455
20
-112.50000000000145
10
-54.000000000004455
20
-117.00000000000148
42
0.99999999999999989
10
-51.000000000004498
20
-117.00000000000148
10
-51.000000000004498
20
-112.50000000000145
42
0.99999999999999989
0
LWPOLYLINE
5
143
100
AcDbEntity
8
0
100
AcDbPolyline
90
4
70
1
43
0.0
10
-41.99999999988151
20
-114.00000000002896
10
-37.499999999871946
20
-114.00000000000597
42
0.99999999999999989
10
-37.499999999865594
20
-110.99999999999709
10
-41.999999999866162
20
-110.99999999997409
42
0.99999999999999989
0
LWPOLYLINE
5
144
100
AcDbEntity
8
0
100
AcDbPolyline
90
4
70
1
43
0.0
10
-52.500000000004469
20
-102.75000000000296
10
-48.000000000004086
20
-102.75000000000293
42
0.99999999999999989
10
-48.000000000004086
20
-99.750000000000952
10
-52.500000000004469
20
-99.750000000000952
42
0.99999999999999989
0
LWPOLYLINE
5
145
100
AcDbEntity
8
0
100
AcDbPolyline
90
4
70
1
43
0.0
10
-36.000000000070429
20
-101.24999999999443
10
-36.000000000087397
20
-96.749999999993875
42
0.99999999999999989
10
-39.000000000009926
20
-96.750000000005173
10
-38.999999999992959
20
-101.25000000000571
42
0.99999999999999989
0
LWPOLYLINE
5
146
100
AcDbEntity
8
0
100
AcDbPolyline
90
4
70
1
43
0.0
10
-54.000000000004434
20
-82.50000000000145
10
-54.000000000004434
20
-87.000000000001478
42
0.99999999999999989
10
-51.000000000004484
20
-87.000000000001478
10
-51.000000000004484
20
-82.50000000000145
42
0.99999999999999989
0
LWPOLYLINE
5
147
100
AcDbEntity
8
0
100
AcDbPolyline
90
4
70
1
43
0.0
10
-41.999999999881496
20
-84.000000000028962
10
-37.499999999871925
20
-84.000000000005969
42
0.99999999999999989
10
-37.499999999865572
20
-80.999999999997087
10
-41.999999999866148
20
-80.999999999974094
42
0.99999999999999989
0
LWPOLYLINE
5
148
100
AcDbEntity
8
0
100
AcDbPolyline
90
4
70
1
43
0.0
10
-71.500000000000796
20
-57.142580554880205
42
-0.99999999999999989
10
-67.500000000000796
20
-57.142580554880183
10
-67.500000000000867
20
-102.14258055488018
42
-0.99999999999999989
10
-71.500000000000881
20
-102.14258055488018
0
CIRCLE
5
149
100
AcDbEntity
8
0
100
AcDbCircle
10
-69.500000000001052
20
60.857419445119817
30
0
40
2.0000000000000018
210
0
220
-0
230
1
0
CIRCLE
5
150
100
AcDbEntity
8
0
100
AcDbCircle
10
-69.500000000000796
20
-167.41460459687968
30
0
40
2.0000000000000018
210
0
220
-0
230
1
0
LWPOLYLINE
5
151
100
AcDbEntity
8
0
100
AcDbPolyline
90
4
70
1
43
0.0
10
-67.500000000000995
20
7.8574194451198132
10
-67.500000000000924
20
52.857419445119817
42
0.99999999999999989
10
-71.500000000000924
20
52.857419445119817
10
-71.500000000000995
20
7.8574194451198167
42
0.99999999999999989
0
LWPOLYLINE
5
152
100
AcDbEntity
8
0
100
AcDbPolyline
90
4
70
1
43
0.0
10
-71.500000000000867
20
-2.1425805548801744
42
-0.99999999999999989
10
-67.500000000000867
20
-2.1425805548801868
10
-67.500000000000938
20
-47.142580554880197
42
-0.99999999999999989
10
-71.500000000000938
20
-47.142580554880176
0
LWPOLYLINE
5
153
100
AcDbEntity
8
0
100
AcDbPolyline
90
4
70
1
43
0.0
10
-71.500000000000739
20
-112.14258055488018
42
-0.99999999999999989
10
-67.500000000000739
20
-112.14258055488018
10
-67.50000000000081
20
-157.1425805548802
42
-0.99999999999999989
10
-71.50000000000081
20
-157.1425805548802
0
LWPOLYLINE
5
154
100
AcDbEntity
8
0
100
AcDbPolyline
90
4
70
1
43
0.0
10
67.500000000000796
20
-57.142580554880205
42
-0.99999999999999989
10
71.500000000000796
20
-57.142580554880183
10
71.500000000000881
20
-102.14258055488018
42
-0.99999999999999989
10
67.500000000000867
20
-102.14258055488018
0
CIRCLE
5
155
100
AcDbEntity
8
0
100
AcDbCircle
10
69.500000000001052
20
60.857419445119817
30
0
40
2.0000000000000018
210
0
220
0
230
1
0
CIRCLE
5
156
100
AcDbEntity
8
0
100
AcDbCircle
10
69.500000000000796
20
-167.41460459687968
30
0
40
2.0000000000000018
210
0
220
0
230
1
0
LWPOLYLINE
5
157
100
AcDbEntity
8
0
100
AcDbPolyline
90
4
70
1
43
0.0
10
67.500000000000924
20
52.857419445119817
10
67.500000000000995
20
7.8574194451198087
42
0.99999999999999989
10
71.500000000000995
20
7.8574194451198132
10
71.500000000000924
20
52.857419445119817
42
0.99999999999999989
0
LWPOLYLINE
5
158
100
AcDbEntity
8
0
100
AcDbPolyline
90
4
70
1
43
0.0
10
67.500000000000867
20
-2.142580554880178
42
-0.99999999999999989
10
71.500000000000867
20
-2.1425805548801868
10
71.500000000000938
20
-47.142580554880183
42
-0.99999999999999989
10
67.500000000000938
20
-47.142580554880183
0
LWPOLYLINE
5
159
100
AcDbEntity
8
0
100
AcDbPolyline
90
4
70
1
43
0.0
10
67.500000000000739
20
-112.14258055488018
42
-0.99999999999999989
10
71.500000000000739
20
-112.14258055488018
10
71.50000000000081
20
-157.1425805548802
42
-0.99999999999999989
10
67.50000000000081
20
-157.1425805548802
0
CIRCLE
5
160
100
AcDbEntity
8
0
100
AcDbCircle
10
-2.1191823861180741e-14
20
-30
30
0
40
2
210
0
220
-0
230
1
0
CIRCLE
5
161
100
AcDbEntity
8
0
100
AcDbCircle
10
-30.000000000000021
20
40
30
0
40
2.0000000000000018
210
0
220
-0
230
1
0
CIRCLE
5
162
100
AcDbEntity
8
0
100
AcDbCircle
10
29.999999999999979
20
40
30
0
40
2.0000000000000018
210
0
220
-0
230
1
0
CIRCLE
5
163
100
AcDbEntity
8
0
100
AcDbCircle
10
52.599999999999923
20
-49.099999999998929
30
0
40
4.0000000000000036
210
0
220
-0
230
1
0
CIRCLE
5
164
100
AcDbEntity
8
0
100
AcDbCircle
10
52.600000000001003
20
61.374939069639325
30
0
40
4.0000000000000036
210
0
220
-0
230
1
0
CIRCLE
5
165
100
AcDbEntity
8
0
100
AcDbCircle
10
-52.600000000001003
20
61.374939069639325
30
0
40
4.0000000000000036
210
0
220
-0
230
1
0
CIRCLE
5
166
100
AcDbEntity
8
0
100
AcDbCircle
10
-52.599999999999923
20
-49.099999999998929
30
0
40
4.0000000000000036
210
0
220
-0
230
1
0
LWPOLYLINE
5
167
100
AcDbEntity
8
0
100
AcDbPolyline
90
8
70
1
43
0.0
10
-71.500000000004547
20
-173.41460459687971
42
-0.41421356237309503
10
-75.500000000004547
20
-169.41460459687971
10
-75.500000000004746
20
63.618000368823111
42
-0.33205716735938723
10
-72.637636576497599
20
67.45281236158435
42
-0.14520279204463077
10
72.637636576495467
20
67.452812361556596
42
-0.33205716735928892
10
75.500000000001052
20
63.618000368795826
10
75.500000000000952
20
-169.41460459687971
42
-0.41421356237309437
10
71.500000000000966
20
-173.41460459687968
0
ENDSEC
0
SECTION
2
OBJECTS
0
DICTIONARY
5
C
100
AcDbDictionary
3
ACAD_GROUP
350
D
3
ACAD_MLINESTYLE
350
17
0
DICTIONARY
5
D
100
AcDbDictionary
0
DICTIONARY
5
1A
330
C
100
AcDbDictionary
0
DICTIONARY
5
17
100
AcDbDictionary
0
ENDSEC
0
EOF
